<?xml version="1.0" encoding="UTF-8"?>
<svg id="Layer_1" xmlns="http://www.w3.org/2000/svg" viewBox="0 0 39 39">
  <defs>
    <style>
      .cls-1 {
        fill: #ccc;
      }
    </style>
  </defs>
  <path class="cls-1" d="M7.4,19.95c0-.91.43-1.66,1.3-2.27,3.06-2.22,6.09-4.44,9.11-6.66,5.16-3.68,7.99-5.52,8.49-5.52.74,0,1.39.4,1.95,1.21.56.81.84,1.66.84,2.57,0,.3-.02.55-.06.76-.41,1.26-4.83,4.44-13.26,9.53,2.93,1.76,7.29,4.46,13.07,8.09.54,1.26.81,2.12.81,2.57,0,.71-.41,1.42-1.24,2.16-.83.73-1.55,1.1-2.17,1.1-.41,0-3.35-1.78-8.8-5.33-5.45-3.55-8.49-5.65-9.11-6.28-.62-.63-.93-1.27-.93-1.93Z"/>
</svg>