<?xml version="1.0" encoding="UTF-8"?>
<svg xmlns="http://www.w3.org/2000/svg" version="1.1" viewBox="0 0 39 39">
  <defs>
    <style>
      .cls-1 {
        fill: #ccc;
      }
    </style>
  </defs>
  <!-- Generator: Adobe Illustrator 28.7.1, SVG Export Plug-In . SVG Version: 1.2.0 Build 142)  -->
  <g>
    <g id="Layer_1">
      <path class="cls-1" d="M29.6,19c0,.9-.4,1.7-1.3,2.3-3.1,2.2-6.1,4.4-9.1,6.7-5.2,3.7-8,5.5-8.5,5.5-.7,0-1.4-.4-2-1.2-.6-.8-.8-1.7-.8-2.6s0-.6,0-.8c.4-1.3,4.8-4.4,13.3-9.5-2.9-1.8-7.3-4.5-13.1-8.1-.5-1.3-.8-2.1-.8-2.6,0-.7.4-1.4,1.2-2.2.8-.7,1.5-1.1,2.2-1.1s3.3,1.8,8.8,5.3c5.5,3.6,8.5,5.6,9.1,6.3.6.6.9,1.3.9,1.9Z"/>
    </g>
  </g>
</svg>