<?xml version="1.0" encoding="UTF-8"?>
<svg xmlns="http://www.w3.org/2000/svg" version="1.1" viewBox="0 0 64 64">
  <defs>
    <style>
      .cls-1 {
        fill: #029491;
      }
    </style>
  </defs>
  <!-- Generator: Adobe Illustrator 28.7.1, SVG Export Plug-In . SVG Version: 1.2.0 Build 142)  -->
  <g>
    <g id="Layer_1">
      <path id="id_101" class="cls-1" d="M32,2.8c-5.8,0-11.4,1.7-16.2,4.9-4.8,3.2-8.6,7.8-10.8,13.1-2.2,5.3-2.8,11.2-1.7,16.9,1.1,5.7,3.9,10.9,8,15,4.1,4.1,9.3,6.9,15,8,5.7,1.1,11.6.5,16.9-1.7,5.3-2.2,9.9-6,13.1-10.8,3.2-4.8,4.9-10.5,4.9-16.2,0-7.8-3.1-15.2-8.6-20.7-5.5-5.5-12.9-8.6-20.7-8.6h0ZM32,5.3c5,0,10,1.4,14.2,4.1,4.3,2.7,7.7,6.5,9.9,11,2.2,4.5,3,9.6,2.5,14.6-.6,5-2.5,9.7-5.7,13.7-1.4-3.2-3.5-6-6.1-8.2-2.6-2.2-5.7-3.9-9-4.7,1.9-1.3,3.4-3.1,4.1-5.2.8-2.1.9-4.5.2-6.7-.7-2.2-2-4.1-3.8-5.5-1.8-1.4-4-2.1-6.3-2.1s-4.5.7-6.3,2.1c-1.8,1.4-3.2,3.3-3.8,5.5-.7,2.2-.6,4.5.2,6.7.8,2.1,2.2,4,4.1,5.2-3.3.9-6.4,2.5-9,4.7-2.6,2.2-4.7,5-6.1,8.2-3.1-3.9-5.1-8.7-5.7-13.7-.6-5,.3-10.1,2.5-14.6,2.2-4.5,5.6-8.4,9.9-11,4.3-2.7,9.2-4.1,14.2-4.1h0ZM32,34.9c-1.6,0-3.2-.5-4.5-1.4-1.3-.9-2.4-2.2-3-3.6-.6-1.5-.8-3.1-.5-4.7.3-1.6,1.1-3,2.2-4.1,1.1-1.1,2.6-1.9,4.1-2.2,1.6-.3,3.2-.2,4.7.5,1.5.6,2.7,1.6,3.6,3s1.4,2.9,1.4,4.5c0,2.1-.9,4.2-2.4,5.7s-3.6,2.4-5.7,2.4h0ZM32,58.7c-3.6,0-7.1-.7-10.3-2.1-3.3-1.4-6.2-3.4-8.7-5.9,1.4-3.9,4-7.3,7.4-9.6,3.4-2.4,7.5-3.7,11.6-3.7s8.2,1.3,11.6,3.7c3.4,2.4,6,5.7,7.4,9.6-2.5,2.5-5.5,4.6-8.7,5.9-3.3,1.4-6.8,2.1-10.3,2.1h0Z"/>
    </g>
  </g>
</svg>